<svg xmlns="http://www.w3.org/2000/svg" width="32" height="32" viewBox="0 0 24 24"><path fill="#232F3E" d="M22.924 14.536c-.23-.277-2.023-.3-2.023-.3l.23-.973s.185-.78-.458-.949c-.643-.17-1.196.53-1.196.53l-1.99 1.996s-.5.474-.87.493c-.37.018-.74-.325-.74-.325l3.208-4.228s.49-.66-.14-.948c-.63-.29-1.2.223-1.2.223L15.44 14.5s-.45.54-.984.515c-.535-.025-.805-.436-.805-.436l3.19-5.7s.402-.728-.088-.97c-.49-.242-1.012.3-.13.88l-2.2 3.633c-.22.36-.6.6-1.02.6c-.42.0-.8-.24-1.02-.6L9.6 8.804c-.04-.06-.1-.1-.14-.16c.712-1.574.1-1.08-.262-1.51c-.363-.43-1.09-.597-1.09-.597s-.804.093-1.24.622c-.436.53-.108 1.408-.108 1.408s1.61 3.44 1.83 3.93c.22.49.19 1.1-.1 1.51c-.29.41-2.06 2.75-2.06 2.75s-.4.51-.92.48c-.52-.03-.73-.4-.73-.4l2.05-3.1s.36-.6-.1-.78c-.46-.18-1.04.38-1.04.38l-2.72 4.14s-.47.6.1.8c.57.2 1.1-.3 1.1-.3l2.5-3.83c.04-.06.1-.1.14-.16c-.75 1.1-1.02 2.62-.2 3.86c.82 1.24 2.2 1.9 3.7 1.9c1.92 0 3.6-1.03 4.5-2.65c.06.02.1.05.16.05c1.4 0 2.65-.86 3.2-2.1l.3-.64c.2-.42.4-.82.6-1.18c.02.04.05.08.08.12l1.3 1.34c.38.38 1 .4 1.4.04c.4-.38.4-1.02.02-1.4l-.98-1.02zm-10.45.64c-.3.56-1.1 1.4-1.1 1.4c-.04.03-.06.06-.1.1c.14.3.3.6.48.86c.02-.02.03-.03.05-.05c1.2-1.2 1.6-2.84.92-4.32c-.12.23-.23.46-.35.7v.02c.04.07.08.13.12.19c.12.18.24.35.38.5Zm-2.9-10.45c1.1 0 2 .9 2 2s-.9 2-2 2s-2-.9-2-2s.9-2 2-2Z"/></svg>